<?xml version="1.0" encoding="utf-8"?>
<!-- Generator: Adobe Illustrator 27.1.1, SVG Export Plug-In . SVG Version: 6.00 Build 0)  -->
<svg version="1.1" id="Layer_1" xmlns="http://www.w3.org/2000/svg" xmlns:xlink="http://www.w3.org/1999/xlink" x="0px" y="0px"
	 viewBox="0 0 500 137.8" style="enable-background:new 0 0 500 137.8;" xml:space="preserve">
<style type="text/css">
	.st0{fill:#201D3C;}
</style>
<g>
	<g>
		<g>
			<g>
				<g>
					<path class="st0" d="M92.1,14.2h17.1L79.3,98.4c-3,8.5-11,14.1-20,14.1h0c-9,0-17-5.7-20-14.1L9.4,14.2h17.2
						c4.9,0,9.3,3.2,10.9,7.9l21.8,66.4l21.9-66.4C82.8,17.4,87.1,14.2,92.1,14.2z"/>
					<path class="st0" d="M143.4,113.7c-23,0-39.5-15.4-39.5-40.2c0-24.8,16.2-40.2,39.5-40.2c22.8,0,38.9,15.1,38.9,38.9
						c0,2.2-0.1,4.6-0.4,7h-54.2c0.8,10.2,7.1,15,14.8,15c6.7,0,10.5-3.4,12.5-7.6h25.5C176.7,101.9,162.9,113.7,143.4,113.7z
						 M127.8,65.9h30c0-8.5-6.7-13.4-14.7-13.4C135.3,52.5,129.2,57.2,127.8,65.9z"/>
					<path class="st0" d="M248.2,70.1c0-10.6-5.9-16.5-15-16.5c-9.1,0-15,5.9-15,16.5v30.5c0,6.6-5.3,11.9-11.9,11.9h-0.1
						c-6.6,0-11.9-5.3-11.9-11.9V34.4h13.6c5.7,0,10.4,4.6,10.4,10.4v0c4.8-6.6,13.2-11.2,23.7-11.2c18.1,0,30.1,12.3,30.1,33.3
						v33.8c0,6.6-5.3,11.9-11.9,11.9h0c-6.6,0-11.9-5.3-11.9-11.9V70.1z"/>
				</g>
			</g>
		</g>
		<path class="st0" d="M302.3,124.5h-0.6c-3.1,0-5.7-2.5-5.7-5.7V19.9c0-3.1,2.5-5.7,5.7-5.7h0.6c3.1,0,5.7,2.5,5.7,5.7v98.9
			C308,122,305.4,124.5,302.3,124.5z"/>
		<path class="st0" d="M370.3,80.8h-22.6l-2.4,7.1c-0.8,2.3-2.9,3.8-5.3,3.8l0,0c-3.9,0-6.6-3.9-5.3-7.5l17.7-49.4h8.9
			c2.6,0,5,1.7,5.9,4.1l16.3,45.3c1.3,3.7-1.4,7.5-5.3,7.5H378c-2.4,0-4.5-1.5-5.3-3.8L370.3,80.8z M359,47.9l-8.2,23.8h16.5
			L359,47.9z"/>
		<path class="st0" d="M417.9,45.7c11.5,0,20.5,9,20.5,23s-9,23.3-20.5,23.3c-7,0-12.1-3.5-14.8-7.1v22.1c0,3.1-2.5,5.7-5.7,5.7l0,0
			c-3.1,0-5.7-2.5-5.7-5.7V46.4h5.1c3.4,0,6.2,2.8,6.2,6.2v0.2C405.7,49.1,410.9,45.7,417.9,45.7z M414.9,55.6
			c-6.1,0-11.8,4.7-11.8,13.2c0,8.5,5.7,13.2,11.8,13.2c6.1,0,11.9-4.9,11.9-13.3S421,55.6,414.9,55.6z"/>
		<path class="st0" d="M470.1,45.7c11.5,0,20.5,9,20.5,23s-9,23.3-20.5,23.3c-7,0-12.1-3.5-14.8-7.1v22.1c0,3.1-2.5,5.7-5.7,5.7l0,0
			c-3.1,0-5.7-2.5-5.7-5.7V46.4h5.1c3.4,0,6.2,2.8,6.2,6.2v0.2C458,49.1,463.2,45.7,470.1,45.7z M467.1,55.6
			c-6.1,0-11.8,4.7-11.8,13.2c0,8.5,5.7,13.2,11.8,13.2c6.1,0,11.9-4.9,11.9-13.3S473.3,55.6,467.1,55.6z"/>
	</g>
</g>
</svg>
